<svg width="28" height="28" viewBox="0 0 28 28" fill="none" xmlns="http://www.w3.org/2000/svg">
<path d="M15.9328 0.406249C16.0169 0.418556 16.0169 0.418556 16.1028 0.431112C18.4327 0.789187 20.6571 1.7362 22.4953 3.21875C22.5259 3.24345 22.5565 3.26815 22.5881 3.29359C23.411 3.96272 24.2032 4.71113 24.839 5.5625C24.8739 5.60922 24.8739 5.60922 24.9096 5.65688C27.1114 8.62166 28.1266 12.3194 27.5929 15.9922C27.2503 18.2904 26.3431 20.5823 24.8661 22.391C24.799 22.4732 24.7328 22.5561 24.6668 22.6392C24.3447 23.0411 24.0023 23.4141 23.6378 23.7778C23.6099 23.8057 23.5821 23.8336 23.5533 23.8623C23.0587 24.3548 22.5402 24.7915 21.9679 25.1914C21.8995 25.2411 21.831 25.2909 21.7626 25.3406C20.7407 26.0676 19.5797 26.6103 18.3937 27.0078C18.3452 27.0242 18.2967 27.0405 18.2467 27.0574C14.8316 28.1895 11.0539 27.8634 7.83507 26.2802C6.6865 25.6985 5.64716 24.9855 4.71297 24.098C4.56785 23.9595 4.56785 23.9595 4.41153 23.8387C4.28685 23.7381 4.18851 23.64 4.08583 23.5178C3.97077 23.3825 3.85503 23.25 3.73267 23.1212C2.9788 22.3258 2.38455 21.4098 1.87026 20.4453C1.84542 20.3989 1.82059 20.3526 1.79501 20.3048C0.129898 17.1409 -0.147771 13.3962 0.868439 9.98678C1.48233 8.00975 2.47756 6.22027 3.89998 4.71358C4.01324 4.593 4.12009 4.47076 4.22499 4.34302C4.41524 4.11891 4.63426 3.93521 4.85854 3.74609C4.91277 3.69843 4.967 3.65077 5.02287 3.60167C5.83605 2.89088 6.71266 2.30866 7.67104 1.8125C7.71279 1.7904 7.75454 1.76829 7.79755 1.74552C10.2591 0.453151 13.1893 0.00238493 15.9328 0.406249Z" fill="#A7A7A7"/>
<path d="M12.7169 15.2778C12.8267 15.2776 12.9365 15.2774 13.0463 15.2772C13.2758 15.2768 13.5052 15.2767 13.7346 15.2767C14.0261 15.2768 14.3176 15.276 14.609 15.2749C14.8357 15.2743 15.0624 15.2742 15.289 15.2742C15.3964 15.2741 15.5037 15.2739 15.611 15.2734C17.267 15.267 18.7674 15.538 20.0221 16.6939C20.059 16.726 20.0958 16.7582 20.1338 16.7914C20.9959 17.5868 21.5671 18.8374 21.6256 20.0021C21.6344 20.2914 21.6345 20.5804 21.6315 20.8697C21.6297 21.0505 21.6303 21.2312 21.631 21.4119C21.6307 21.5272 21.6302 21.6425 21.6295 21.7579C21.6297 21.8117 21.6299 21.8655 21.6301 21.921C21.6289 21.9956 21.6289 21.9956 21.6278 22.0717C21.6275 22.1154 21.6272 22.159 21.6268 22.2039C21.5973 22.3536 21.5494 22.4035 21.4283 22.4946C21.2641 22.5458 21.116 22.5606 20.9445 22.5608C20.8948 22.561 20.8451 22.5611 20.794 22.5613C20.7397 22.5613 20.6854 22.5612 20.6294 22.5611C20.5715 22.5612 20.5136 22.5613 20.454 22.5615C20.2595 22.5618 20.0649 22.5618 19.8704 22.5617C19.7311 22.5619 19.5918 22.5621 19.4526 22.5623C19.1133 22.5628 18.7739 22.563 18.4346 22.563C18.1588 22.563 17.8831 22.5632 17.6073 22.5634C16.8255 22.5639 16.0437 22.5641 15.2619 22.5641C15.2197 22.5641 15.1776 22.5641 15.1342 22.5641C15.092 22.5641 15.0498 22.5641 15.0063 22.5641C14.3222 22.5641 13.6381 22.5646 12.9541 22.5654C12.2518 22.5663 11.5494 22.5667 10.8471 22.5666C10.4528 22.5666 10.0585 22.5668 9.66412 22.5674C9.29337 22.568 8.92262 22.568 8.55187 22.5676C8.41565 22.5675 8.27943 22.5676 8.14321 22.568C7.95756 22.5684 7.77191 22.5682 7.58625 22.5677C7.5321 22.568 7.47794 22.5683 7.42214 22.5686C7.09806 22.5669 6.84477 22.5595 6.60413 22.3189C6.58807 22.2122 6.58807 22.2122 6.58618 22.0812C6.58524 22.032 6.5843 21.9828 6.58334 21.9321C6.58302 21.8785 6.58271 21.825 6.58239 21.7698C6.58186 21.7141 6.58133 21.6583 6.58078 21.6009C6.57993 21.4822 6.57941 21.3634 6.5792 21.2446C6.57851 21.0669 6.57564 20.8893 6.57266 20.7115C6.56482 19.7828 6.67176 18.8603 7.14612 18.0415C7.16851 18.0011 7.19089 17.9607 7.21396 17.9191C7.422 17.5548 7.66731 17.237 7.95179 16.9282C7.98396 16.8914 8.01614 16.8545 8.04929 16.8165C9.28137 15.4813 11.0072 15.2785 12.7169 15.2778ZM8.53772 17.69C7.54567 18.8734 7.54163 20.0513 7.54163 21.6157C11.8729 21.6157 16.2041 21.6157 20.6666 21.6157C20.6666 19.7916 20.6075 18.6771 19.3728 17.3867C18.2708 16.3338 16.8799 16.2057 15.4335 16.2095C15.3265 16.2095 15.2195 16.2093 15.1125 16.2092C14.8897 16.209 14.667 16.2093 14.4442 16.2098C14.1611 16.2105 13.8781 16.2101 13.595 16.2094C13.3745 16.209 13.1541 16.2091 12.9336 16.2094C12.8293 16.2095 12.725 16.2094 12.6208 16.2091C11.0569 16.2059 9.63897 16.4768 8.53772 17.69Z" fill="black"/>
<path d="M16.9751 6.85006C17.7777 7.67345 18.1197 8.73584 18.1131 9.86632C18.08 11.0077 17.5765 11.9601 16.7663 12.7461C15.9506 13.4486 14.941 13.7612 13.8716 13.7275C12.7341 13.6386 11.7509 13.1602 10.9985 12.2993C10.2368 11.3614 10.0411 10.2587 10.1196 9.07662C10.2484 8.06337 10.8351 7.13552 11.6284 6.50948C13.2924 5.32753 15.4731 5.43597 16.9751 6.85006ZM11.7604 7.70631C11.1563 8.42591 10.9769 9.26737 11.0571 10.1899C11.2064 10.9732 11.6273 11.6923 12.2624 12.1807C12.9853 12.6647 13.767 12.873 14.6327 12.741C15.4826 12.5514 16.1885 12.1256 16.6748 11.3947C17.1286 10.6316 17.3017 9.78003 17.0813 8.90817C16.8247 8.11731 16.3397 7.46877 15.6274 7.02584C14.2639 6.36305 12.8175 6.59249 11.7604 7.70631Z" fill="black"/>
</svg>
