<svg width="204" height="34" viewBox="0 0 204 34" fill="none" xmlns="http://www.w3.org/2000/svg">
<path d="M14.674 13.283C14.3453 12.7417 13.891 12.326 13.311 12.036C12.7503 11.746 12.0833 11.601 11.31 11.601C9.87933 11.601 8.74833 12.065 7.917 12.993C7.105 13.921 6.699 15.168 6.699 16.734C6.699 18.4933 7.134 19.837 8.004 20.765C8.89333 21.6737 10.179 22.128 11.861 22.128C13.8523 22.128 15.2733 21.229 16.124 19.431H10.411V15.342H21.025V20.852C20.5803 21.9347 19.923 22.9497 19.053 23.897C18.2023 24.8443 17.1197 25.6273 15.805 26.246C14.4903 26.8453 12.992 27.145 11.31 27.145C9.26067 27.145 7.44333 26.71 5.858 25.84C4.292 24.9507 3.074 23.723 2.204 22.157C1.35333 20.5717 0.928 18.764 0.928 16.734C0.928 14.7233 1.35333 12.935 2.204 11.369C3.074 9.78367 4.292 8.556 5.858 7.686C7.424 6.79667 9.23167 6.352 11.281 6.352C13.8523 6.352 15.979 6.97067 17.661 8.208C19.343 9.44533 20.387 11.137 20.793 13.283H14.674ZM22.6442 18.851C22.6442 17.169 22.9439 15.6997 23.5432 14.443C24.1619 13.1863 24.9932 12.2197 26.0372 11.543C27.1006 10.8663 28.2799 10.528 29.5752 10.528C30.6966 10.528 31.6632 10.7503 32.4752 11.195C33.2872 11.6397 33.9156 12.239 34.3602 12.993V10.731H40.0442V27H34.3602V24.738C33.9156 25.492 33.2776 26.0913 32.4462 26.536C31.6342 26.9807 30.6772 27.203 29.5752 27.203C28.2799 27.203 27.1006 26.8647 26.0372 26.188C24.9932 25.5113 24.1619 24.5447 23.5432 23.288C22.9439 22.012 22.6442 20.533 22.6442 18.851ZM34.3602 18.851C34.3602 17.807 34.0702 16.9853 33.4902 16.386C32.9296 15.7867 32.2336 15.487 31.4022 15.487C30.5516 15.487 29.8459 15.7867 29.2852 16.386C28.7246 16.966 28.4442 17.7877 28.4442 18.851C28.4442 19.895 28.7246 20.7263 29.2852 21.345C29.8459 21.9443 30.5516 22.244 31.4022 22.244C32.2336 22.244 32.9296 21.9443 33.4902 21.345C34.0702 20.7457 34.3602 19.9143 34.3602 18.851ZM64.5402 10.586C66.5895 10.586 68.1942 11.2047 69.3542 12.442C70.5335 13.6793 71.1232 15.371 71.1232 17.517V27H65.4392V18.271C65.4392 17.401 65.1975 16.7243 64.7142 16.241C64.2308 15.7577 63.5735 15.516 62.7422 15.516C61.9108 15.516 61.2535 15.7577 60.7702 16.241C60.2868 16.7243 60.0452 17.401 60.0452 18.271V27H54.3612V18.271C54.3612 17.401 54.1195 16.7243 53.6362 16.241C53.1722 15.7577 52.5245 15.516 51.6932 15.516C50.8425 15.516 50.1755 15.7577 49.6922 16.241C49.2088 16.7243 48.9672 17.401 48.9672 18.271V27H43.2832V10.731H48.9672V12.877C49.4698 12.181 50.1175 11.63 50.9102 11.224C51.7222 10.7987 52.6502 10.586 53.6942 10.586C54.8928 10.586 55.9562 10.847 56.8842 11.369C57.8315 11.891 58.5758 12.6257 59.1172 13.573C59.6972 12.6837 60.4608 11.9683 61.4082 11.427C62.3555 10.8663 63.3995 10.586 64.5402 10.586ZM89.7813 18.677C89.7813 19.1217 89.7523 19.5663 89.6943 20.011H78.9353C78.9933 20.9003 79.2349 21.5673 79.6603 22.012C80.1049 22.4373 80.6656 22.65 81.3423 22.65C82.2896 22.65 82.9663 22.2247 83.3723 21.374H89.4333C89.1819 22.4953 88.6889 23.5007 87.9543 24.39C87.2389 25.26 86.3303 25.9463 85.2283 26.449C84.1263 26.9517 82.9083 27.203 81.5743 27.203C79.9696 27.203 78.5389 26.8647 77.2823 26.188C76.0449 25.5113 75.0686 24.5447 74.3533 23.288C73.6573 22.0313 73.3093 20.5523 73.3093 18.851C73.3093 17.1497 73.6573 15.6803 74.3533 14.443C75.0493 13.1863 76.0159 12.2197 77.2533 11.543C78.5099 10.8663 79.9503 10.528 81.5743 10.528C83.1789 10.528 84.5999 10.8567 85.8373 11.514C87.0746 12.1713 88.0413 13.1187 88.7373 14.356C89.4333 15.574 89.7813 17.0143 89.7813 18.677ZM83.9813 17.256C83.9813 16.56 83.7493 16.0187 83.2853 15.632C82.8213 15.226 82.2413 15.023 81.5453 15.023C80.8493 15.023 80.2789 15.2163 79.8343 15.603C79.3896 15.9703 79.0996 16.5213 78.9643 17.256H83.9813ZM91.1794 18.851C91.1794 17.169 91.5274 15.6997 92.2234 14.443C92.9194 13.1863 93.8861 12.2197 95.1234 11.543C96.3801 10.8663 97.8107 10.528 99.4154 10.528C101.484 10.528 103.224 11.0983 104.635 12.239C106.047 13.3603 106.955 14.936 107.361 16.966H101.329C100.981 15.9027 100.305 15.371 99.2994 15.371C98.5841 15.371 98.0137 15.6707 97.5884 16.27C97.1824 16.85 96.9794 17.7103 96.9794 18.851C96.9794 19.9917 97.1824 20.8617 97.5884 21.461C98.0137 22.0603 98.5841 22.36 99.2994 22.36C100.324 22.36 101.001 21.8283 101.329 20.765H107.361C106.955 22.7757 106.047 24.3513 104.635 25.492C103.224 26.6327 101.484 27.203 99.4154 27.203C97.8107 27.203 96.3801 26.8647 95.1234 26.188C93.8861 25.5113 92.9194 24.5447 92.2234 23.288C91.5274 22.0313 91.1794 20.5523 91.1794 18.851ZM108.795 18.851C108.795 17.169 109.094 15.6997 109.694 14.443C110.312 13.1863 111.144 12.2197 112.188 11.543C113.251 10.8663 114.43 10.528 115.726 10.528C116.847 10.528 117.814 10.7503 118.626 11.195C119.438 11.6397 120.066 12.239 120.511 12.993V10.731H126.195V27H120.511V24.738C120.066 25.492 119.428 26.0913 118.597 26.536C117.785 26.9807 116.828 27.203 115.726 27.203C114.43 27.203 113.251 26.8647 112.188 26.188C111.144 25.5113 110.312 24.5447 109.694 23.288C109.094 22.012 108.795 20.533 108.795 18.851ZM120.511 18.851C120.511 17.807 120.221 16.9853 119.641 16.386C119.08 15.7867 118.384 15.487 117.553 15.487C116.702 15.487 115.996 15.7867 115.436 16.386C114.875 16.966 114.595 17.7877 114.595 18.851C114.595 19.895 114.875 20.7263 115.436 21.345C115.996 21.9443 116.702 22.244 117.553 22.244C118.384 22.244 119.08 21.9443 119.641 21.345C120.221 20.7457 120.511 19.9143 120.511 18.851ZM150.691 10.586C152.74 10.586 154.345 11.2047 155.505 12.442C156.684 13.6793 157.274 15.371 157.274 17.517V27H151.59V18.271C151.59 17.401 151.348 16.7243 150.865 16.241C150.381 15.7577 149.724 15.516 148.893 15.516C148.061 15.516 147.404 15.7577 146.921 16.241C146.437 16.7243 146.196 17.401 146.196 18.271V27H140.512V18.271C140.512 17.401 140.27 16.7243 139.787 16.241C139.323 15.7577 138.675 15.516 137.844 15.516C136.993 15.516 136.326 15.7577 135.843 16.241C135.359 16.7243 135.118 17.401 135.118 18.271V27H129.434V10.731H135.118V12.877C135.62 12.181 136.268 11.63 137.061 11.224C137.873 10.7987 138.801 10.586 139.845 10.586C141.043 10.586 142.107 10.847 143.035 11.369C143.982 11.891 144.726 12.6257 145.268 13.573C145.848 12.6837 146.611 11.9683 147.559 11.427C148.506 10.8663 149.55 10.586 150.691 10.586ZM167.957 27.203C166.333 27.203 164.873 26.8647 163.578 26.188C162.302 25.5113 161.296 24.5447 160.562 23.288C159.827 22.0313 159.46 20.5523 159.46 18.851C159.46 17.169 159.827 15.6997 160.562 14.443C161.316 13.1863 162.331 12.2197 163.607 11.543C164.902 10.8663 166.362 10.528 167.986 10.528C169.61 10.528 171.06 10.8663 172.336 11.543C173.631 12.2197 174.646 13.1863 175.381 14.443C176.135 15.6997 176.512 17.169 176.512 18.851C176.512 20.533 176.135 22.012 175.381 23.288C174.646 24.5447 173.631 25.5113 172.336 26.188C171.04 26.8647 169.581 27.203 167.957 27.203ZM167.957 22.273C168.749 22.273 169.407 21.983 169.929 21.403C170.47 20.8037 170.741 19.953 170.741 18.851C170.741 17.749 170.47 16.908 169.929 16.328C169.407 15.748 168.759 15.458 167.986 15.458C167.212 15.458 166.565 15.748 166.043 16.328C165.521 16.908 165.26 17.749 165.26 18.851C165.26 19.9723 165.511 20.823 166.014 21.403C166.516 21.983 167.164 22.273 167.957 22.273ZM179.404 14.762C180.371 14.7427 181.057 14.5687 181.463 14.24C181.889 13.9113 182.101 13.4183 182.101 12.761C182.101 12.297 182.005 11.369 181.811 9.977C181.715 9.37767 181.628 8.759 181.55 8.121C181.473 7.46367 181.434 6.88367 181.434 6.381C181.434 4.60233 181.976 3.22 183.058 2.234C184.16 1.248 185.639 0.754999 187.495 0.754999H189.641V5.366H188.597C187.979 5.366 187.534 5.50133 187.263 5.772C186.993 6.04267 186.857 6.44867 186.857 6.99C186.857 7.35733 186.935 8.21767 187.089 9.571C187.263 11.311 187.35 12.442 187.35 12.964C187.35 14.066 187.089 14.9747 186.567 15.69C186.065 16.4053 185.291 16.8597 184.247 17.053V17.111C185.291 17.3043 186.065 17.7587 186.567 18.474C187.089 19.1893 187.35 20.098 187.35 21.2C187.35 21.722 187.263 22.853 187.089 24.593C186.935 25.9463 186.857 26.8163 186.857 27.203C186.857 27.725 186.993 28.1213 187.263 28.392C187.534 28.6627 187.979 28.798 188.597 28.798H189.641V33.409H187.495C185.639 33.409 184.16 32.916 183.058 31.93C181.976 30.944 181.434 29.5617 181.434 27.783C181.434 27.2803 181.473 26.71 181.55 26.072C181.628 25.4147 181.715 24.7863 181.811 24.187C182.005 22.795 182.101 21.8767 182.101 21.432C182.101 20.1173 181.202 19.431 179.404 19.373V14.762ZM203.538 19.373C201.74 19.431 200.841 20.1173 200.841 21.432C200.841 21.8767 200.937 22.795 201.131 24.187C201.227 24.7863 201.314 25.4147 201.392 26.072C201.469 26.71 201.508 27.2803 201.508 27.783C201.508 29.5617 200.957 30.944 199.855 31.93C198.772 32.916 197.303 33.409 195.447 33.409H193.301V28.798H194.345C194.963 28.798 195.408 28.6627 195.679 28.392C195.949 28.1213 196.085 27.725 196.085 27.203C196.085 26.8163 196.007 25.9463 195.853 24.593C195.679 22.853 195.592 21.722 195.592 21.2C195.592 20.098 195.843 19.1893 196.346 18.474C196.868 17.7587 197.651 17.3043 198.695 17.111V17.053C197.651 16.8597 196.868 16.4053 196.346 15.69C195.843 14.9747 195.592 14.066 195.592 12.964C195.592 12.442 195.679 11.311 195.853 9.571C196.007 8.21767 196.085 7.35733 196.085 6.99C196.085 6.44867 195.949 6.04267 195.679 5.772C195.408 5.50133 194.963 5.366 194.345 5.366H193.301V0.754999H195.447C197.303 0.754999 198.772 1.248 199.855 2.234C200.957 3.22 201.508 4.60233 201.508 6.381C201.508 6.88367 201.469 7.46367 201.392 8.121C201.314 8.759 201.227 9.37767 201.131 9.977C200.937 11.369 200.841 12.297 200.841 12.761C200.841 13.4183 201.044 13.9113 201.45 14.24C201.875 14.5687 202.571 14.7427 203.538 14.762V19.373Z" fill="white"/>
</svg>
